/* XPM */
static char * arrow_un_xpm[] = {
"11 8 3 1",
"+	c #D6D6D6",
" 	c #9C9C9C",
"@	c #FFFFFF",
"+++  ++++++",
"+++ @  ++++",
"+++ @@@  ++",
"+++ @++@@  ",
"+++ @++  @@",
"+++ @  @@++",
"+++  @@++++",
"+++@@++++++"};
