/* XPM */
static char * btmleft_fo_xpm[] = {
"3 3 5 1",
".	c #404040",
"%	c #FFFFFF",
"$	c #D6D6D6",
"#	c #BDBDBD",
" 	c #000000",
".%$",
".##",
".  "};
