/* XPM */
static char * close_pr_xpm[] = {
"19 22 10 1",
"´	c #404040",
"@	c #FFFD00",
"{	c #FFCB00",
".	c #D09500",
"`	c #B58200",
";	c #EBA900",
"!	c #F7B200",
"&	c #FFD500",
"$	c #FFFFFF",
"%	c #E7E7E7",
"´´´´´´´´´´´´´´´´´´´",
"´@@@@@@@@@@@@@@@@@@",
"´@{{{{{{{{{{{{{{{{{",
"´@{{{{{{{{{{{{{{{{{",
"´@{{{.`````````.{{{",
"´@{{.`.;.;;;;;;!.@{",
"´@{{`.;.;;;!;!!!.@{",
"´@{{`;.;;;!;!!!&.@{",
"´@{{`.;;;!;!!!!&.@{",
"´@{{`;;;!;!!!!!&.@{",
"´@{{`;;!;!!!!!!&.@{",
"´@{{`;!;!!!!!!&&.@{",
"´@{{`;;!!!!!!&!&.@{",
"´@{{`;!!!!!!&!&&.@{",
"´@{{`;!!!!!&!&&&.@{",
"´@{{.!!&&&&&&&&&.@{",
"´@{{{...........{@{",
"´@{{{@@@@@@@@@@@@{{",
"´@{{{{{{{{{{{{{{{{{",
"´@{{{{{{{{{{{{{{{{{",
"´$%%%%%%%%%%%%%%%%%",
"´$%%%%%%%%%%%%%%%%%"};
