/* XPM */
static char * close_un_xpm[] = {
"19 22 5 1",
"´	c #9C9C9C",
"#	c #FFFFFF",
"/	c #D6D6D6",
".	c #9C9C9C",
"@	c #F6F6F6",
"´´´´´´´´´´´´´´´´´´´",
"´##################",
"´#/////////////////",
"´#/////////////////",
"´#///...........///",
"´#//./@@@@@@@@@/.@/",
"´#//.@//////////.@/",
"´#//.@//////////.@/",
"´#//.@//////////.@/",
"´#//.@//////////.@/",
"´#//.@//////////.@/",
"´#//.@//////////.@/",
"´#//.@//////////.@/",
"´#//.@//////////.@/",
"´#//.@//////////.@/",
"´#//.///////////.@/",
"´#///.........../@/",
"´#///@@@@@@@@@@@@//",
"´#/////////////////",
"´#/////////////////",
"´#/////////////////",
"´#/////////////////"};
