/* XPM */
static char * close_fo_xpm[] = {
"19 22 8 1",
"´	c #404040",
"@	c #FFFD00",
"{	c #FFCB00",
".	c #D09500",
";	c #EBA900",
"`	c #B58200",
"$	c #FFFFFF",
"%	c #E7E7E7",
"´´´´´´´´´´´´´´´´´´´",
"´@@@@@@@@@@@@@@@@@@",
"´@{{{{{{{{{{{{{{{{{",
"´@{{{{{{{{{{{{{{{{{",
"´@{{{...........{{{",
"´@{{.{@@@@@@@@@{.@{",
"´@{{.@@@@{@{{{{;`@{",
"´@{{.@@@{@{{{{{;`@{",
"´@{{.@@{@{{{{{;;`@{",
"´@{{.@{@{{{{{;{;`@{",
"´@{{.@@{{{{{;{;;`@{",
"´@{{.@{{{{{;{;;;`@{",
"´@{{.@{{{{;{;;;.`@{",
"´@{{.@{{{;{;;;.;`@{",
"´@{{.@{{;{;;;.;.`@{",
"´@{{.{;;;;;;.;.`.@{",
"´@{{{.`````````.{@{",
"´@{{{@@@@@@@@@@@@{{",
"´@{{{{{{{{{{{{{{{{{",
"´@{{{{{{{{{{{{{{{{{",
"´$%%%%%%%%%%%%%%%%%",
"´$%%%%%%%%%%%%%%%%%"};
