/* XPM */
static char * max_un_xpm[] = {
"22 22 7 1",
"´	c #9C9C9C",
"#	c #FFFFFF",
";	c #BDBDBD",
" 	c #7D7D7D",
"/	c #D6D6D6",
".	c #9C9C9C",
"@	c #F6F6F6",
"´´´´´´´´´´´´´´´´´´´´´´",
"####################; ",
"////////////////////; ",
"////////////////////; ",
"////......//////////; ",
"///.@@@@@/.@////////; ",
"///.@/////.@////////; ",
"///.@/////.@....////; ",
"///.@/////.@@@@/.@//; ",
"///.@/////.@////.@//; ",
"///.//////.@////.@//; ",
"////....../@////.@//; ",
"////@@@@@@@/////.@//; ",
"//////.@////////.@//; ",
"//////.@////////.@//; ",
"//////.@////////.@//; ",
"//////./////////.@//; ",
"///////........./@//; ",
"///////@@@@@@@@@@///; ",
"////////////////////; ",
"////////////////////; ",
"////////////////////; "};
