/* XPM */
static char * max_pr_xpm[] = {
"22 22 9 1",
"´	c #404040",
"$	c #FFFFFF",
";	c #CACACA",
" 	c #000000",
"%	c #E7E7E7",
".	c #B3B3B3",
"`	c #9C9C9C",
"!	c #D5D5D5",
"&	c #F2F2F2",
"´´´´´´´´´´´´´´´´´´´´´´",
"$$$$$$$$$$$$$$$$$$$$; ",
"%%%%%%%%%%%%%%%%%%%%; ",
"%%%%%%%%%%%%%%%%%%%%; ",
"%%%%.````.%%%%%%%%%%; ",
"%%%.`!`!!!.$%%%%%%%%; ",
"%%%`!`!!!!.$%%%%%%%%; ",
"%%%``!!!!&.````.%%%%; ",
"%%%`!!!!&&.....!.$%%; ",
"%%%`!!!&!&.!.!!!.$%%; ",
"%%%.!!&&&!!.!!!&.$%%; ",
"%%%%...!.!.!!!!&.$%%; ",
"%%%%$$`.!.!!!!!&.$%%; ",
"%%%%%%`..!!!!!&&.$%%; ",
"%%%%%%`.!!!!!&!&.$%%; ",
"%%%%%%`.!!!!&!&&.$%%; ",
"%%%%%%.!!&&&&&&!.$%%; ",
"%%%%%%%.........%$%%; ",
"%%%%%%%$$$$$$$$$$%%%; ",
"%%%%%%%%%%%%%%%%%%%%; ",
"%%%%%%%%%%%%%%%%%%%%; ",
"%%%%%%%%%%%%%%%%%%%%; "};
