/* XPM */
static char * sep_fo_xpm[] = {
"2 22 5 1",
"´	c #404040",
"@	c #FFFD00",
"{	c #FFCB00",
"`	c #B58200",
"%	c #E7E7E7",
"´´",
"@@",
"{{",
"`{",
"`@",
"`@",
"`@",
"`@",
"`@",
"`@",
"`@",
"`@",
"`@",
"`@",
"`@",
"`@",
"`@",
"`@",
"`@",
"{@",
"%%",
"%%"};
