/* XPM */
static char * sep_un_xpm[] = {
"2 22 5 1",
"´	c #9C9C9C",
"#	c #FFFFFF",
"/	c #D6D6D6",
"@	c #F6F6F6",
"$	c #F0F4F0",
"´´",
"##",
"//",
"´/",
"´@",
"´@",
"´@",
"´@",
"´@",
"´@",
"´@",
"´@",
"´@",
"´@",
"´@",
"´@",
"´@",
"´$",
"´$",
"/$",
"//",
"//"};
