/* XPM */
static char * title_un_xpm[] = {
"1 22 3 1",
"´	c #9C9C9C",
"#	c #FFFFFF",
"/	c #D6D6D6",
"´","#",
"/","/","/","/","/",
"/","/","/","/","/",
"/","/","/","/","/",
"/","/","/","/","/"};
