/* XPM */
static char * title_fo_xpm[] = {
"1 22 4 1",
"´	c #404040",
"@	c #FFFD00",
"{	c #FFCB00",
"%	c #E7E7E7",
"´","@",
"{","{","{",
"{","{","{",
"{","{","{",
"{","{","{",
"{","{","{",
"{","{","{",
"%","%"};
