/* XPM */
static char * topright_fo_xpm[] = {
"3 3 5 1",
".	c #404040",
"%	c #FFFFFF",
"#	c #BDBDBD",
" 	c #000000",
"$	c #D6D6D6",
"...",
"%# ",
"$# "};
